<mxfile host="app.diagrams.net" modified="2023-10-12T01:43:36.734Z" agent="Mozilla/5.0 (X11; Linux x86_64) AppleWebKit/537.36 (KHTML, like Gecko) Chrome/116.0.0.0 Safari/537.36" etag="ce56OJrxg9QlfOscuw9s" version="22.0.0" type="device">
  <diagram name="Page-1" id="rwVqQcGSeMi6LIKSYKp5">
    <mxGraphModel dx="778" dy="527" grid="1" gridSize="10" guides="1" tooltips="1" connect="1" arrows="1" fold="1" page="1" pageScale="1" pageWidth="850" pageHeight="1100" math="0" shadow="0">
      <root>
        <mxCell id="0" />
        <mxCell id="1" parent="0" />
        <mxCell id="Yo0diX8_wTfVSnEAWruE-1" value="app movil&lt;br&gt;" style="shape=umlActor;verticalLabelPosition=bottom;verticalAlign=top;html=1;outlineConnect=0;" vertex="1" parent="1">
          <mxGeometry x="650" y="90" width="30" height="60" as="geometry" />
        </mxCell>
        <mxCell id="Yo0diX8_wTfVSnEAWruE-2" value="profesor&lt;br&gt;" style="shape=umlActor;verticalLabelPosition=bottom;verticalAlign=top;html=1;outlineConnect=0;" vertex="1" parent="1">
          <mxGeometry x="120" y="90" width="30" height="60" as="geometry" />
        </mxCell>
        <mxCell id="Yo0diX8_wTfVSnEAWruE-3" value="funcionario&lt;br&gt;" style="shape=umlActor;verticalLabelPosition=bottom;verticalAlign=top;html=1;outlineConnect=0;" vertex="1" parent="1">
          <mxGeometry x="120" y="390" width="30" height="60" as="geometry" />
        </mxCell>
        <mxCell id="Yo0diX8_wTfVSnEAWruE-4" value="" style="swimlane;startSize=0;" vertex="1" parent="1">
          <mxGeometry x="240" y="40" width="370" height="530" as="geometry" />
        </mxCell>
        <mxCell id="Yo0diX8_wTfVSnEAWruE-6" value="Registrar estudiantes" style="ellipse;whiteSpace=wrap;html=1;" vertex="1" parent="Yo0diX8_wTfVSnEAWruE-4">
          <mxGeometry x="260" y="30" width="80" height="50" as="geometry" />
        </mxCell>
        <mxCell id="Yo0diX8_wTfVSnEAWruE-7" value="Enviar resultados de estudiantes" style="ellipse;whiteSpace=wrap;html=1;" vertex="1" parent="Yo0diX8_wTfVSnEAWruE-4">
          <mxGeometry x="250" y="110" width="100" height="60" as="geometry" />
        </mxCell>
        <mxCell id="Yo0diX8_wTfVSnEAWruE-10" value="Registrar" style="ellipse;whiteSpace=wrap;html=1;" vertex="1" parent="Yo0diX8_wTfVSnEAWruE-4">
          <mxGeometry x="40" y="30" width="90" height="50" as="geometry" />
        </mxCell>
        <mxCell id="Yo0diX8_wTfVSnEAWruE-8" value="" style="endArrow=none;html=1;rounded=0;entryX=0.5;entryY=0.5;entryDx=0;entryDy=0;entryPerimeter=0;exitX=1;exitY=0.5;exitDx=0;exitDy=0;" edge="1" parent="1" source="Yo0diX8_wTfVSnEAWruE-7" target="Yo0diX8_wTfVSnEAWruE-1">
          <mxGeometry width="50" height="50" relative="1" as="geometry">
            <mxPoint x="440" y="250" as="sourcePoint" />
            <mxPoint x="490" y="200" as="targetPoint" />
          </mxGeometry>
        </mxCell>
        <mxCell id="Yo0diX8_wTfVSnEAWruE-9" value="" style="endArrow=none;html=1;rounded=0;entryX=0.5;entryY=0.5;entryDx=0;entryDy=0;entryPerimeter=0;exitX=1;exitY=0.5;exitDx=0;exitDy=0;" edge="1" parent="1" source="Yo0diX8_wTfVSnEAWruE-6" target="Yo0diX8_wTfVSnEAWruE-1">
          <mxGeometry width="50" height="50" relative="1" as="geometry">
            <mxPoint x="600" y="190" as="sourcePoint" />
            <mxPoint x="675" y="130" as="targetPoint" />
          </mxGeometry>
        </mxCell>
      </root>
    </mxGraphModel>
  </diagram>
</mxfile>
